<svg xmlns="http://www.w3.org/2000/svg" width="480" height="560" viewBox="0 0 480 560">
<rect width="480" height="560" fill="#f2ede4"/>
<circle cx="240" cy="170" r="95" fill="#e8b88a"/>
<rect x="185" y="255" width="110" height="150" rx="28" fill="#e8b88a"/>
<rect x="150" y="390" width="180" height="120" rx="20" fill="#3a5a8c"/>
<rect x="255" y="395" width="18" height="70" fill="#e8b88a"/>
<g fill="#f4c999">
<rect x="282" y="392" width="14" height="66" rx="7"/><rect x="300" y="390" width="14" height="64" rx="7"/><rect x="318" y="388" width="14" height="62" rx="7"/><rect x="336" y="392" width="14" height="60" rx="7"/><rect x="354" y="394" width="14" height="58" rx="7"/></g>
<circle cx="205" cy="150" r="9" fill="#3b2a20"/><circle cx="275" cy="150" r="9" fill="#3b2a20"/>
<path d="M225 185 Q240 200 255 185" stroke="#3b2a20" stroke-width="5" fill="none"/>
<text x="180" y="540" font-size="14" fill="#7a6a5a" font-family="sans-serif">人物肖像</text>
</svg>